<svg xmlns="http://www.w3.org/2000/svg" viewBox="-105 -105 210 210">
  <g fill="#d8bd85">
    <g transform="translate(-50,-92)"><path d="M50,92 C22,70 0,48 0,28 C0,12 12,0 26,0 C38,0 47,8 50,18 C53,8 62,0 74,0 C88,0 100,12 100,28 C100,48 78,70 50,92 Z"/></g>
    <g transform="rotate(90) translate(-50,-92)"><path d="M50,92 C22,70 0,48 0,28 C0,12 12,0 26,0 C38,0 47,8 50,18 C53,8 62,0 74,0 C88,0 100,12 100,28 C100,48 78,70 50,92 Z"/></g>
    <g transform="rotate(180) translate(-50,-92)"><path d="M50,92 C22,70 0,48 0,28 C0,12 12,0 26,0 C38,0 47,8 50,18 C53,8 62,0 74,0 C88,0 100,12 100,28 C100,48 78,70 50,92 Z"/></g>
    <g transform="rotate(270) translate(-50,-92)"><path d="M50,92 C22,70 0,48 0,28 C0,12 12,0 26,0 C38,0 47,8 50,18 C53,8 62,0 74,0 C88,0 100,12 100,28 C100,48 78,70 50,92 Z"/></g>
  </g>
</svg>
